HIERARCHY
ROOT hip
{
	OFFSET 0.000000 0.000000 0.000000 
	CHANNELS 6 Xposition Yposition Zposition Xrotation Zrotation Yrotation
	JOINT abdomen
	{
		OFFSET 0.000000 3.402643 0.000000 
		CHANNELS 3 Xrotation Zrotation Yrotation
		JOINT chest
		{
			OFFSET 0.000000 8.438565 -0.680529 
			CHANNELS 3 Xrotation Zrotation Yrotation
			JOINT neck
			{
				OFFSET 0.000000 10.207942 -0.272212 
				CHANNELS 3 Xrotation Zrotation Yrotation
				JOINT head
				{
					OFFSET 0.000000 3.130431 0.000000 
					CHANNELS 3 Xrotation Zrotation Yrotation
					End Site
					{
						OFFSET 0.000000 3.130435 0.000000 
					}
				}
			}
			JOINT lCollar
			{
				OFFSET 3.470700 6.669187 -0.816635 
				CHANNELS 3 Yrotation Zrotation Xrotation
				JOINT lShldr
				{
					OFFSET 3.198488 0.000000 0.000000 
					CHANNELS 3 Zrotation Yrotation Xrotation
					JOINT lForeArm
					{
						OFFSET 10.139888 0.000000 0.000000 
						CHANNELS 3 Yrotation Zrotation Xrotation
						JOINT lHand
						{
							OFFSET 8.370511 0.000000 0.000000 
							CHANNELS 3 Zrotation Yrotation Xrotation
							End Site
							{
								OFFSET 4.083176 0.000000 0.000000 
							}
						}
					}
				}
			}
			JOINT rCollar
			{
				OFFSET -3.470700 6.669187 -0.816635 
				CHANNELS 3 Yrotation Zrotation Xrotation
				JOINT rShldr
				{
					OFFSET -3.198488 0.000000 0.000000 
					CHANNELS 3 Zrotation Yrotation Xrotation
					JOINT rForeArm
					{
						OFFSET -10.139888 0.000000 0.000000 
						CHANNELS 3 Yrotation Zrotation Xrotation
						JOINT rHand
						{
							OFFSET -8.370511 0.000000 0.000000 
							CHANNELS 3 Zrotation Yrotation Xrotation
							End Site
							{
								OFFSET -4.083176 0.000000 0.000000 
							}
						}
					}
				}
			}
		}
	}
	JOINT lThigh
	{
		OFFSET 5.308129 -1.633274 1.361059 
		CHANNELS 3 Xrotation Zrotation Yrotation
		JOINT lShin
		{
			OFFSET -2.041588 -20.007561 0.000000 
			CHANNELS 3 Xrotation Zrotation Yrotation
			JOINT lFoot
			{
				OFFSET 0.000000 -19.190928 -1.224953 
				CHANNELS 3 Xrotation Yrotation Zrotation
				End Site
				{
					OFFSET 0.000000 -2.449906 4.627600 
				}
			}
		}
	}
	JOINT rThigh
	{
		OFFSET -5.308129 -1.633274 1.361059 
		CHANNELS 3 Xrotation Zrotation Yrotation
		JOINT rShin
		{
			OFFSET 2.041588 -20.007561 0.000000 
			CHANNELS 3 Xrotation Zrotation Yrotation
			JOINT rFoot
			{
				OFFSET 0.000000 -19.190928 -1.224953 
				CHANNELS 3 Xrotation Yrotation Zrotation
				End Site
				{
					OFFSET 0.000000 -2.449906 4.627600 
				}
			}
		}
	}
}
MOTION
Frames: 15
Frame Time: 0.016667
-0.830461 44.838734 4.254179 1.347680 -0.302651 -3.102870 -20.000999 -0.827436 -0.343142 18.935499 -0.351422 -0.292789 7.995387 -4.556069 -7.048595 9.565190 7.473340 -2.526630 2.000000 -2.000000 0.000000 -86.435600 3.854920 157.940994 26.025700 -0.337701 0.060047 0.044673 -0.003583 -138.201004 -2.000000 2.000000 0.000000 84.723099 -4.450280 166.395996 -24.228800 0.339522 0.056109 -0.056750 -0.017610 -127.098000 -4.869318 -4.010842 -6.719389 23.475296 3.092325 1.728134 -15.689433 17.369675 4.161430 -6.022713 4.856454 21.458281 26.198605 -3.171356 -1.888272 -15.893747 -8.698455 -2.898393 
-0.878478 44.858982 4.097558 1.406250 -0.136678 -2.229940 -19.992399 -0.877186 -0.003038 18.945299 -0.478326 -0.142795 7.906035 -5.339908 -6.077012 9.661070 7.296970 -2.062300 2.000000 -2.000000 0.000000 -86.064697 3.289180 158.244995 26.035400 -0.337691 0.060068 0.044820 -0.007737 -139.684998 -2.000000 2.000000 0.000000 84.849503 -4.760410 165.369003 -23.808901 0.339929 0.055193 -0.057642 -0.022340 -125.378998 -5.057554 -3.943171 -6.639427 23.238487 3.086663 1.700737 -15.067821 16.397301 3.725125 -6.171417 4.800775 21.274923 26.437424 -3.156435 -1.911822 -16.096653 -9.264122 -3.119885 
-0.973625 44.858719 3.948969 1.376950 0.078102 -1.326230 -19.894899 -0.873829 0.534259 19.082001 -0.556456 0.111981 7.438072 -6.213496 -4.862251 9.665580 6.927540 -1.512550 2.000000 -2.000000 0.000000 -85.713501 2.704270 158.705002 26.689699 -0.336998 0.061467 0.044939 -0.009894 -140.457001 -2.000000 2.000000 0.000000 84.976601 -5.199790 165.339005 -23.642799 0.340089 0.054830 -0.057421 -0.021240 -125.778999 -5.165930 -3.981696 -6.989254 22.960247 3.093713 1.666549 -14.524911 15.776122 3.431408 -6.279035 4.718019 20.950245 26.606712 -3.140207 -1.915978 -16.275921 -9.775778 -3.376980 
-1.098846 44.876900 3.752321 1.357430 0.165969 -0.132758 -19.834299 -0.846426 1.135730 19.042900 -0.693117 0.408940 7.623433 -6.998112 -3.546484 9.781140 6.750990 -0.812796 2.000000 -2.000000 0.000000 -85.372398 2.384090 159.643005 28.301100 -0.335223 0.064878 0.045223 -0.013739 -141.834000 -2.000000 2.000000 0.000000 85.142899 -5.903480 165.582001 -23.545200 0.340182 0.054617 -0.057491 -0.021589 -125.652000 -5.459345 -3.801974 -7.335138 22.964001 3.070340 1.681478 -13.968570 14.847812 3.054440 -6.332206 4.767749 20.406439 26.568604 -3.125481 -1.903368 -16.352386 -10.360998 -3.611599 
-1.233418 44.893143 3.572321 1.406260 0.253830 1.168380 -19.799700 -0.814583 1.860310 19.052500 -0.966464 0.757794 8.377026 -7.667896 -2.502744 9.978220 6.777370 -0.181356 2.000000 -2.000000 0.000000 -85.070801 2.133410 161.078995 30.185900 -0.333026 0.068801 0.045800 -0.019315 -143.835999 -2.000000 2.000000 0.000000 85.270599 -6.716350 166.585999 -23.427999 0.340293 0.054361 -0.057229 -0.020247 -126.140999 -5.805037 -3.731892 -8.185472 22.946062 3.062730 1.699710 -13.491398 14.392961 2.819196 -6.441489 4.806016 19.788336 26.560453 -3.113600 -1.910568 -16.390171 -10.900723 -3.861668 
-1.425134 44.909252 3.345802 1.484410 0.380732 3.047040 -19.744801 -0.762056 2.389860 18.993900 -1.034770 1.024320 8.986474 -8.421424 -1.480828 10.242800 6.715260 0.448920 2.000000 -2.000000 0.000000 -84.876503 1.794760 162.466995 32.031601 -0.330751 0.072572 0.046346 -0.023380 -145.300995 -2.000000 2.000000 0.000000 85.301003 -7.491660 168.223999 -23.945601 0.339797 0.055491 -0.056764 -0.017691 -127.068001 -6.320807 -3.526132 -8.792764 22.806849 3.066953 1.682786 -12.722549 12.929633 2.276337 -6.579563 4.871525 18.913124 26.517052 -3.075083 -1.941839 -16.522680 -11.638235 -4.222361 
-1.651855 44.916721 3.080212 1.621190 0.614988 5.222590 -19.669300 -0.790292 2.926770 18.896099 -1.259240 1.276730 9.757184 -8.997644 -0.697597 10.460600 6.809060 0.974338 2.000000 -2.000000 0.000000 -84.780098 1.896520 164.263000 34.512100 -0.327504 0.077519 0.047380 -0.029556 -147.537003 -2.000000 2.000000 0.000000 85.350403 -7.318730 169.445007 -23.369400 0.340349 0.054232 -0.056690 -0.017260 -127.224998 -6.735488 -3.382499 -9.451588 22.423729 3.049400 1.655118 -11.975328 11.288460 1.759849 -6.887363 4.885822 18.007284 26.755873 -3.054204 -1.953679 -16.972712 -12.486089 -4.715582 
-1.899527 44.942501 2.817497 1.933790 0.819845 7.918440 -19.546200 -0.724524 3.241320 18.925400 -1.298300 1.443210 10.430387 -10.501122 -0.213896 11.080000 6.789470 1.378070 2.000000 -2.000000 0.000000 -84.888298 1.831020 165.503998 36.426201 -0.324854 0.081239 0.047923 -0.032320 -148.542999 -2.000000 2.000000 0.000000 84.970299 -7.089180 171.496994 -22.978800 0.340716 0.053375 -0.056536 -0.016343 -127.556999 -7.497504 -3.273148 -10.201160 21.994986 3.009634 1.643479 -10.808787 9.532202 1.216481 -7.155321 4.814613 16.805929 26.591026 -3.033593 -1.951089 -17.339449 -13.536347 -5.285486 
-2.202008 44.961452 2.539135 1.953160 0.351358 10.969100 -19.303900 -0.541623 3.562320 18.983601 -1.747390 1.629990 10.834562 -10.750109 0.363348 11.110500 6.847120 1.730500 2.000000 -2.000000 0.000000 -84.840103 1.491710 166.578995 37.578499 -0.323199 0.083434 0.048396 -0.034540 -149.352997 -2.000000 2.000000 0.000000 -95.049103 -173.104004 -7.701980 -23.594000 0.340135 0.054724 -0.056496 -0.016100 -127.643997 -8.462393 -2.480236 -11.284980 22.281862 3.006526 1.658620 -10.025400 7.490370 0.683661 -6.834668 5.539376 16.039366 25.592976 -2.972014 -1.892317 -17.610899 -15.295627 -6.115570 
-2.552842 44.978729 2.222397 2.304740 0.400067 14.205600 -19.168400 -0.464804 3.934420 18.924801 -2.001140 1.834310 12.015430 -11.532550 0.595879 11.548100 7.110750 2.062550 2.000000 -2.000000 0.000000 -84.869797 1.347320 167.477005 38.447701 -0.321922 0.085068 0.048581 -0.035368 -149.656006 -2.000000 2.000000 0.000000 -95.214897 -173.259003 -7.027780 -24.551100 0.339204 0.056809 -0.056417 -0.015614 -127.820000 -9.605476 -2.250686 -12.085852 21.952166 2.959612 1.634910 -8.595294 5.369771 0.234194 -7.072488 5.729685 15.139423 25.136822 -2.919122 -1.887784 -18.286366 -16.877277 -7.041698 
-2.956304 45.027969 1.847199 2.920030 0.487647 17.759300 -18.868299 -0.365219 4.199960 19.002899 -2.089080 1.980440 13.757033 -12.445650 0.316653 12.336600 7.627340 2.266680 2.000000 -2.000000 0.000000 -85.094597 0.791589 167.869003 39.004299 -0.321091 0.086104 0.048857 -0.036567 -150.095993 -2.000000 2.000000 0.000000 -95.810501 -174.076004 -5.806150 -25.156500 0.338597 0.058120 -0.055977 -0.012694 -128.875000 -10.885471 -2.173182 -12.988395 21.202766 2.889034 1.633003 -6.671664 2.984253 -0.138358 -7.592909 5.852714 14.535583 24.681307 -2.864210 -1.892479 -19.212095 -18.986315 -8.319783 
-3.373427 45.077736 1.466990 3.437580 0.399670 21.274099 -18.688000 -0.210054 4.698040 18.914499 -2.479450 2.258490 14.986389 -12.949564 -0.286554 12.826700 7.935260 2.214290 2.000000 -2.000000 0.000000 -85.172997 0.148542 168.505997 38.887100 -0.321267 0.085887 0.049020 -0.037259 -150.348999 -2.000000 2.000000 0.000000 -96.318398 -174.690002 -5.296770 -25.840099 0.337895 0.059592 -0.055689 -0.010553 -129.645996 -12.280533 -1.977125 -13.321559 20.544479 2.796656 1.616726 -4.546574 0.333627 -0.345896 -8.053472 5.954195 13.393716 23.930622 -2.794721 -1.850363 -19.775524 -20.741056 -9.427050 
-3.830037 45.145409 1.054011 4.111500 0.516246 25.115299 -18.520901 -0.248504 5.096550 18.688900 -2.986700 2.470270 15.478268 -12.629349 -0.961787 12.919100 8.087550 1.967130 2.000000 -2.000000 0.000000 -85.134102 -0.182963 168.731003 38.799198 -0.321398 0.085723 0.048745 -0.036087 -149.919998 -2.000000 2.000000 0.000000 -96.962799 -175.020996 -4.612330 -27.109699 0.336544 0.062304 -0.055506 -0.009060 -130.184006 -13.708243 -2.079278 -13.197534 19.607222 2.716314 1.568935 -1.893096 -2.658543 -0.323040 -8.671342 5.715839 12.404212 23.368219 -2.725658 -1.845331 -20.758762 -22.443523 -10.779354 
-4.304441 45.243118 0.622564 5.293260 0.602887 29.362600 -18.282400 -0.394613 5.290190 18.776100 -3.435840 2.557720 15.331628 -11.767498 -1.612079 12.762700 8.149200 1.592620 2.000000 -2.000000 0.000000 -85.202499 -0.173037 168.798996 38.916401 -0.321223 0.085941 0.049020 -0.037259 -150.348999 -2.000000 2.000000 0.000000 -98.085701 -175.466003 -3.126820 -28.574499 0.334912 0.065394 -0.055146 -0.005715 -131.384995 -15.320847 -2.417927 -13.024208 17.617025 2.537833 1.486384 2.133177 -5.377042 0.251445 -9.939819 5.215025 11.567813 23.169348 -2.664243 -1.856543 -22.803196 -24.106636 -12.726363 
-4.731719 45.336575 0.306356 6.329000 0.951199 33.308800 -18.030199 -0.438815 5.561170 18.922701 -3.523960 2.688160 14.678030 -10.811145 -2.145464 12.435500 8.079480 1.184040 2.000000 -2.000000 0.000000 -85.534203 0.333449 168.231995 38.740601 -0.321486 0.085614 0.048919 -0.036833 -150.192993 -2.000000 2.000000 0.000000 -99.726196 -175.871994 -1.299610 -29.599899 0.333723 0.067533 -0.054928 -0.013029 -132.264008 -16.036610 -2.912156 -13.016363 15.088089 2.314727 1.366151 5.285546 -6.437799 0.888727 -10.744243 4.464729 11.059837 23.182182 -2.639910 -1.861347 -25.006126 -25.854826 -14.855929 
